<mxfile host="65bd71144e">
    <diagram id="L1L-aMBzzM1MEzIjlqiO" name="Page-1">
        <mxGraphModel dx="1840" dy="1353" grid="0" gridSize="10" guides="1" tooltips="1" connect="1" arrows="1" fold="1" page="0" pageScale="1" pageWidth="850" pageHeight="1100" math="0" shadow="0">
            <root>
                <mxCell id="0"/>
                <mxCell id="1" parent="0"/>
                <mxCell id="44" value="" style="edgeStyle=none;html=1;endArrow=block;endFill=1;rounded=0;" parent="1" source="2" target="43" edge="1">
                    <mxGeometry relative="1" as="geometry"/>
                </mxCell>
                <mxCell id="2" value="Customer" style="rounded=0;whiteSpace=wrap;html=1;" parent="1" vertex="1">
                    <mxGeometry x="-328" y="199" width="120" height="60" as="geometry"/>
                </mxCell>
                <mxCell id="18" value="" style="edgeStyle=none;html=1;startArrow=none;startFill=0;endArrow=none;endFill=0;strokeWidth=1;rounded=0;" parent="1" source="5" target="182" edge="1">
                    <mxGeometry relative="1" as="geometry">
                        <mxPoint x="449" y="165" as="targetPoint"/>
                    </mxGeometry>
                </mxCell>
                <mxCell id="30" value="" style="edgeStyle=none;html=1;strokeWidth=1;startArrow=none;startFill=0;endArrow=block;endFill=1;rounded=0;" parent="1" source="5" target="29" edge="1">
                    <mxGeometry relative="1" as="geometry"/>
                </mxCell>
                <mxCell id="79" style="edgeStyle=none;html=1;endArrow=none;endFill=0;rounded=0;" parent="1" source="5" target="-Xfdy7UChU0Q8BkvYpxF-176" edge="1">
                    <mxGeometry relative="1" as="geometry">
                        <mxPoint x="306.56766161879716" y="163.65104958288111" as="targetPoint"/>
                    </mxGeometry>
                </mxCell>
                <mxCell id="86" style="edgeStyle=none;html=1;endArrow=none;endFill=0;rounded=0;" parent="1" source="5" target="84" edge="1">
                    <mxGeometry relative="1" as="geometry"/>
                </mxCell>
                <mxCell id="-Xfdy7UChU0Q8BkvYpxF-167" style="edgeStyle=orthogonalEdgeStyle;rounded=0;orthogonalLoop=1;jettySize=auto;html=1;entryX=1;entryY=0.5;entryDx=0;entryDy=0;endArrow=none;endFill=0;" parent="1" source="5" target="dYaynzTb6qn7LC-2oVFC-233" edge="1">
                    <mxGeometry relative="1" as="geometry">
                        <Array as="points">
                            <mxPoint x="1008" y="528"/>
                            <mxPoint x="735" y="528"/>
                            <mxPoint x="735" y="624"/>
                        </Array>
                    </mxGeometry>
                </mxCell>
                <mxCell id="161" style="edgeStyle=none;html=1;strokeWidth=1;startSize=1;endSize=1;" edge="1" parent="1" source="5" target="160">
                    <mxGeometry relative="1" as="geometry"/>
                </mxCell>
                <mxCell id="183" style="edgeStyle=none;html=1;strokeWidth=1;endArrow=none;endFill=0;startSize=1;endSize=1;" edge="1" parent="1" source="5" target="dYaynzTb6qn7LC-2oVFC-215">
                    <mxGeometry relative="1" as="geometry"/>
                </mxCell>
                <mxCell id="185" style="edgeStyle=none;html=1;strokeWidth=1;endArrow=none;endFill=0;startSize=1;endSize=1;" edge="1" parent="1" source="5" target="184">
                    <mxGeometry relative="1" as="geometry"/>
                </mxCell>
                <mxCell id="5" value="Games" style="whiteSpace=wrap;html=1;rounded=0;strokeWidth=1;" parent="1" vertex="1">
                    <mxGeometry x="369" y="199" width="120" height="60" as="geometry"/>
                </mxCell>
                <mxCell id="10" value="" style="edgeStyle=none;html=1;startArrow=none;startFill=0;endArrow=none;endFill=0;shape=link;rounded=0;" parent="1" source="7" target="9" edge="1">
                    <mxGeometry relative="1" as="geometry">
                        <mxPoint x="-85.31571951655428" y="469.99667703633213" as="sourcePoint"/>
                    </mxGeometry>
                </mxCell>
                <mxCell id="12" value="" style="edgeStyle=none;html=1;startArrow=none;startFill=0;endArrow=none;endFill=0;rounded=0;" parent="1" source="7" target="11" edge="1">
                    <mxGeometry relative="1" as="geometry"/>
                </mxCell>
                <mxCell id="7" value="d" style="ellipse;whiteSpace=wrap;html=1;rounded=0;" parent="1" vertex="1">
                    <mxGeometry x="-463" y="336.5" width="30" height="30" as="geometry"/>
                </mxCell>
                <mxCell id="92" value="" style="edgeStyle=none;html=1;endArrow=none;endFill=0;rounded=0;" parent="1" source="9" target="91" edge="1">
                    <mxGeometry relative="1" as="geometry"/>
                </mxCell>
                <mxCell id="94" value="" style="edgeStyle=none;html=1;endArrow=none;endFill=0;rounded=0;" parent="1" source="9" target="93" edge="1">
                    <mxGeometry relative="1" as="geometry"/>
                </mxCell>
                <mxCell id="95" value="" style="edgeStyle=none;html=1;endArrow=none;endFill=0;rounded=0;" parent="1" source="9" target="93" edge="1">
                    <mxGeometry relative="1" as="geometry"/>
                </mxCell>
                <mxCell id="98" value="" style="edgeStyle=none;html=1;endArrow=none;endFill=0;rounded=0;" parent="1" source="9" target="97" edge="1">
                    <mxGeometry relative="1" as="geometry"/>
                </mxCell>
                <mxCell id="101" value="" style="edgeStyle=none;html=1;endArrow=none;endFill=0;rounded=0;" parent="1" source="9" target="100" edge="1">
                    <mxGeometry relative="1" as="geometry"/>
                </mxCell>
                <mxCell id="103" value="" style="edgeStyle=none;html=1;endArrow=none;endFill=0;rounded=0;" parent="1" source="9" target="102" edge="1">
                    <mxGeometry relative="1" as="geometry"/>
                </mxCell>
                <mxCell id="dYaynzTb6qn7LC-2oVFC-225" style="edgeStyle=none;rounded=1;orthogonalLoop=1;jettySize=auto;html=1;endArrow=none;endFill=0;" parent="1" source="9" target="dYaynzTb6qn7LC-2oVFC-224" edge="1">
                    <mxGeometry relative="1" as="geometry"/>
                </mxCell>
                <mxCell id="9" value="User" style="whiteSpace=wrap;html=1;rounded=0;" parent="1" vertex="1">
                    <mxGeometry x="-508" y="484" width="120" height="60" as="geometry"/>
                </mxCell>
                <mxCell id="53" value="" style="edgeStyle=none;html=1;strokeWidth=1;startArrow=none;startFill=0;endArrow=none;endFill=0;rounded=0;" parent="1" source="11" target="52" edge="1">
                    <mxGeometry relative="1" as="geometry"/>
                </mxCell>
                <mxCell id="177" style="edgeStyle=none;html=1;strokeWidth=1;endArrow=none;endFill=0;startSize=1;endSize=1;" edge="1" parent="1" source="11" target="175">
                    <mxGeometry relative="1" as="geometry"/>
                </mxCell>
                <mxCell id="11" value="StoreManager" style="whiteSpace=wrap;html=1;rounded=0;" parent="1" vertex="1">
                    <mxGeometry x="-508" y="199" width="120" height="60" as="geometry"/>
                </mxCell>
                <mxCell id="13" value="" style="edgeStyle=none;html=1;startArrow=none;startFill=0;endArrow=none;endFill=0;rounded=0;" parent="1" source="7" target="14" edge="1">
                    <mxGeometry relative="1" as="geometry">
                        <mxPoint x="30" y="180" as="sourcePoint"/>
                    </mxGeometry>
                </mxCell>
                <mxCell id="178" style="edgeStyle=none;html=1;strokeWidth=1;endArrow=none;endFill=0;startSize=1;endSize=1;" edge="1" parent="1" source="14" target="176">
                    <mxGeometry relative="1" as="geometry"/>
                </mxCell>
                <mxCell id="14" value="Admin" style="whiteSpace=wrap;html=1;rounded=0;" parent="1" vertex="1">
                    <mxGeometry x="-683" y="199" width="120" height="60" as="geometry"/>
                </mxCell>
                <mxCell id="20" value="" style="edgeStyle=none;html=1;startArrow=none;startFill=0;endArrow=none;endFill=0;rounded=0;" parent="1" source="17" target="19" edge="1">
                    <mxGeometry relative="1" as="geometry"/>
                </mxCell>
                <mxCell id="194" style="edgeStyle=none;html=1;strokeWidth=1;endArrow=none;endFill=0;startSize=1;endSize=5;" edge="1" parent="1" source="17" target="5">
                    <mxGeometry relative="1" as="geometry"/>
                </mxCell>
                <mxCell id="17" value="has" style="rhombus;whiteSpace=wrap;html=1;rounded=0;" parent="1" vertex="1">
                    <mxGeometry x="152.3" y="57" width="80" height="80" as="geometry"/>
                </mxCell>
                <mxCell id="22" value="" style="edgeStyle=none;html=1;strokeWidth=1;startArrow=none;startFill=0;endArrow=none;endFill=0;rounded=0;" parent="1" source="19" target="186" edge="1">
                    <mxGeometry relative="1" as="geometry">
                        <mxPoint x="64.05410691003954" y="-94.09647979139504" as="targetPoint"/>
                    </mxGeometry>
                </mxCell>
                <mxCell id="157" style="edgeStyle=none;html=1;entryX=0;entryY=1;entryDx=0;entryDy=0;endArrow=none;endFill=0;rounded=0;" parent="1" source="19" target="154" edge="1">
                    <mxGeometry relative="1" as="geometry"/>
                </mxCell>
                <mxCell id="158" value="" style="edgeStyle=none;html=1;endArrow=classic;endFill=1;rounded=0;" parent="1" source="19" edge="1">
                    <mxGeometry relative="1" as="geometry">
                        <mxPoint x="-2.7640449438204087" y="-309.2359550561798" as="targetPoint"/>
                    </mxGeometry>
                </mxCell>
                <mxCell id="159" style="edgeStyle=none;html=1;endArrow=none;endFill=0;rounded=0;" parent="1" source="19" target="156" edge="1">
                    <mxGeometry relative="1" as="geometry"/>
                </mxCell>
                <mxCell id="192" style="edgeStyle=none;html=1;strokeWidth=1;endArrow=none;endFill=0;startSize=1;endSize=5;" edge="1" parent="1" source="19" target="193">
                    <mxGeometry relative="1" as="geometry">
                        <mxPoint x="-81.74385481600302" y="-37.29790608545295" as="targetPoint"/>
                    </mxGeometry>
                </mxCell>
                <mxCell id="19" value="Store" style="whiteSpace=wrap;html=1;rounded=0;" parent="1" vertex="1">
                    <mxGeometry x="-53" y="-33" width="120" height="60" as="geometry"/>
                </mxCell>
                <mxCell id="24" value="" style="edgeStyle=none;html=1;strokeWidth=1;startArrow=none;startFill=0;endArrow=none;endFill=0;rounded=0;" parent="1" source="21" target="-OKithYqSDyM2QqRVdGg-163" edge="1">
                    <mxGeometry relative="1" as="geometry">
                        <mxPoint x="433.29999999999995" y="83" as="targetPoint"/>
                    </mxGeometry>
                </mxCell>
                <mxCell id="21" value="owns" style="rhombus;whiteSpace=wrap;html=1;rounded=0;" parent="1" vertex="1">
                    <mxGeometry x="473.29999999999995" y="39" width="70" height="60" as="geometry"/>
                </mxCell>
                <mxCell id="dYaynzTb6qn7LC-2oVFC-234" style="edgeStyle=none;rounded=1;orthogonalLoop=1;jettySize=auto;html=1;exitX=1;exitY=0.5;exitDx=0;exitDy=0;endArrow=none;endFill=0;" parent="1" target="dYaynzTb6qn7LC-2oVFC-233" edge="1">
                    <mxGeometry relative="1" as="geometry">
                        <mxPoint x="364" y="567" as="sourcePoint"/>
                    </mxGeometry>
                </mxCell>
                <mxCell id="32" value="" style="edgeStyle=none;html=1;strokeWidth=1;startArrow=none;startFill=0;endArrow=none;endFill=0;rounded=0;" parent="1" source="29" target="31" edge="1">
                    <mxGeometry relative="1" as="geometry"/>
                </mxCell>
                <mxCell id="29" value="belongs" style="rhombus;whiteSpace=wrap;html=1;rounded=0;strokeWidth=1;" parent="1" vertex="1">
                    <mxGeometry x="352.99999999999994" y="420" width="80" height="80" as="geometry"/>
                </mxCell>
                <mxCell id="1-gIfbeMgeTZ3ZNBH4WI-160" style="rounded=0;orthogonalLoop=1;jettySize=auto;html=1;endArrow=none;endFill=0;" parent="1" source="31" target="-fI06E_qC7kYEdV2wy-7-163" edge="1">
                    <mxGeometry relative="1" as="geometry"/>
                </mxCell>
                <mxCell id="31" value="Developer" style="whiteSpace=wrap;html=1;rounded=0;" parent="1" vertex="1">
                    <mxGeometry x="1233" y="170" width="120" height="60" as="geometry"/>
                </mxCell>
                <mxCell id="41" value="" style="edgeStyle=none;html=1;strokeWidth=1;startArrow=none;startFill=0;endArrow=none;endFill=0;rounded=0;" parent="1" source="38" target="40" edge="1">
                    <mxGeometry relative="1" as="geometry"/>
                </mxCell>
                <mxCell id="1-gIfbeMgeTZ3ZNBH4WI-161" style="rounded=0;orthogonalLoop=1;jettySize=auto;html=1;endArrow=none;endFill=0;edgeStyle=orthogonalEdgeStyle;" parent="1" source="38" target="-fI06E_qC7kYEdV2wy-7-163" edge="1">
                    <mxGeometry relative="1" as="geometry">
                        <mxPoint x="1430.2800000000004" y="378" as="sourcePoint"/>
                        <mxPoint x="1429.9959275965537" y="95.35316393527978" as="targetPoint"/>
                    </mxGeometry>
                </mxCell>
                <mxCell id="38" value="Publisher" style="whiteSpace=wrap;html=1;rounded=0;" parent="1" vertex="1">
                    <mxGeometry x="863" y="194" width="120" height="60" as="geometry"/>
                </mxCell>
                <mxCell id="42" style="html=1;strokeWidth=1;startArrow=none;startFill=0;endArrow=none;endFill=0;rounded=0;" parent="1" source="40" target="5" edge="1">
                    <mxGeometry relative="1" as="geometry"/>
                </mxCell>
                <mxCell id="40" value="publishes" style="rhombus;whiteSpace=wrap;html=1;rounded=0;" parent="1" vertex="1">
                    <mxGeometry x="724.28" y="189" width="80" height="80" as="geometry"/>
                </mxCell>
                <mxCell id="47" value="" style="edgeStyle=none;html=1;endArrow=none;endFill=0;startArrow=block;startFill=1;strokeWidth=4;rounded=0;" parent="1" source="43" target="46" edge="1">
                    <mxGeometry relative="1" as="geometry"/>
                </mxCell>
                <mxCell id="43" value="has" style="rhombus;whiteSpace=wrap;html=1;rounded=0;" parent="1" vertex="1">
                    <mxGeometry x="-124" y="190" width="80" height="80" as="geometry"/>
                </mxCell>
                <mxCell id="50" value="" style="edgeStyle=none;html=1;strokeWidth=1;startArrow=none;startFill=0;endArrow=none;endFill=0;rounded=0;" parent="1" source="46" target="49" edge="1">
                    <mxGeometry relative="1" as="geometry"/>
                </mxCell>
                <mxCell id="TF3Yx5PsitKT7lrlH3tv-160" value="" style="rounded=0;orthogonalLoop=1;jettySize=auto;html=1;endArrow=none;endFill=0;" parent="1" source="46" target="TF3Yx5PsitKT7lrlH3tv-159" edge="1">
                    <mxGeometry relative="1" as="geometry"/>
                </mxCell>
                <mxCell id="-Xfdy7UChU0Q8BkvYpxF-161" style="rounded=0;orthogonalLoop=1;jettySize=auto;html=1;endArrow=none;endFill=0;" parent="1" source="46" target="-Xfdy7UChU0Q8BkvYpxF-159" edge="1">
                    <mxGeometry relative="1" as="geometry"/>
                </mxCell>
                <mxCell id="46" value="Wishlist" style="whiteSpace=wrap;html=1;rounded=0;strokeWidth=1;" parent="1" vertex="1">
                    <mxGeometry x="46" y="196" width="120" height="60" as="geometry"/>
                </mxCell>
                <mxCell id="dYaynzTb6qn7LC-2oVFC-236" style="rounded=1;orthogonalLoop=1;jettySize=auto;html=1;exitX=1;exitY=0.5;exitDx=0;exitDy=0;endArrow=none;endFill=0;" parent="1" source="49" target="5" edge="1">
                    <mxGeometry relative="1" as="geometry"/>
                </mxCell>
                <mxCell id="49" value="contains" style="rhombus;whiteSpace=wrap;html=1;rounded=0;" parent="1" vertex="1">
                    <mxGeometry x="219" y="189" width="80" height="80" as="geometry"/>
                </mxCell>
                <mxCell id="56" style="edgeStyle=orthogonalEdgeStyle;html=1;strokeWidth=4;startArrow=block;startFill=1;endArrow=none;endFill=0;rounded=0;" parent="1" source="52" target="19" edge="1">
                    <mxGeometry relative="1" as="geometry">
                        <Array as="points">
                            <mxPoint x="-448" y="-7"/>
                        </Array>
                        <mxPoint x="910" y="32" as="targetPoint"/>
                    </mxGeometry>
                </mxCell>
                <mxCell id="52" value="manages" style="rhombus;whiteSpace=wrap;html=1;rounded=0;" parent="1" vertex="1">
                    <mxGeometry x="-489" y="-33" width="80" height="80" as="geometry"/>
                </mxCell>
                <mxCell id="81" value="Gerne" style="ellipse;whiteSpace=wrap;html=1;strokeWidth=4;rounded=0;" parent="1" vertex="1">
                    <mxGeometry x="442" y="304" width="66.6" height="40" as="geometry"/>
                </mxCell>
                <mxCell id="84" value="Platforms" style="ellipse;whiteSpace=wrap;html=1;strokeWidth=4;rounded=0;" parent="1" vertex="1">
                    <mxGeometry x="298.9999999999999" y="300" width="84.6" height="40" as="geometry"/>
                </mxCell>
                <mxCell id="91" value="&lt;u&gt;uid&lt;/u&gt;" style="ellipse;whiteSpace=wrap;html=1;rounded=0;" parent="1" vertex="1">
                    <mxGeometry x="-604.5" y="473.5" width="73" height="37" as="geometry"/>
                </mxCell>
                <mxCell id="169" style="edgeStyle=none;html=1;strokeWidth=1;endArrow=none;endFill=0;startSize=1;endSize=1;" edge="1" parent="1" source="93" target="172">
                    <mxGeometry relative="1" as="geometry">
                        <mxPoint x="-308" y="620" as="targetPoint"/>
                    </mxGeometry>
                </mxCell>
                <mxCell id="170" style="edgeStyle=none;html=1;strokeWidth=1;endArrow=none;endFill=0;startSize=1;endSize=1;" edge="1" parent="1" source="93" target="171">
                    <mxGeometry relative="1" as="geometry">
                        <mxPoint x="-400.00000508626295" y="615.499974568685" as="targetPoint"/>
                    </mxGeometry>
                </mxCell>
                <mxCell id="93" value="Name" style="ellipse;whiteSpace=wrap;html=1;rounded=0;" parent="1" vertex="1">
                    <mxGeometry x="-417" y="560" width="75" height="37" as="geometry"/>
                </mxCell>
                <mxCell id="97" value="dob" style="ellipse;whiteSpace=wrap;html=1;rounded=0;" parent="1" vertex="1">
                    <mxGeometry x="-590" y="523.75" width="68" height="40.5" as="geometry"/>
                </mxCell>
                <mxCell id="100" value="email" style="ellipse;whiteSpace=wrap;html=1;rounded=0;strokeWidth=1;" parent="1" vertex="1">
                    <mxGeometry x="-531.5" y="575" width="69" height="38" as="geometry"/>
                </mxCell>
                <mxCell id="102" value="phone" style="ellipse;whiteSpace=wrap;html=1;rounded=0;" parent="1" vertex="1">
                    <mxGeometry x="-533" y="377" width="78" height="39" as="geometry"/>
                </mxCell>
                <mxCell id="112" style="edgeStyle=none;html=1;endArrow=none;endFill=0;rounded=0;" parent="1" source="111" target="2" edge="1">
                    <mxGeometry relative="1" as="geometry"/>
                </mxCell>
                <mxCell id="111" value="last_login" style="ellipse;whiteSpace=wrap;html=1;strokeWidth=1;rounded=0;" parent="1" vertex="1">
                    <mxGeometry x="-266" y="130.5" width="76" height="45" as="geometry"/>
                </mxCell>
                <mxCell id="1-gIfbeMgeTZ3ZNBH4WI-177" style="rounded=0;orthogonalLoop=1;jettySize=auto;html=1;endArrow=block;endFill=1;" parent="1" source="dYaynzTb6qn7LC-2oVFC-164" target="1-gIfbeMgeTZ3ZNBH4WI-176" edge="1">
                    <mxGeometry relative="1" as="geometry"/>
                </mxCell>
                <mxCell id="iSEUA83aBgZTAnxHLK8J-172" style="rounded=0;orthogonalLoop=1;jettySize=auto;html=1;exitX=0.5;exitY=1;exitDx=0;exitDy=0;shape=link;" parent="1" source="139" target="iSEUA83aBgZTAnxHLK8J-171" edge="1">
                    <mxGeometry relative="1" as="geometry"/>
                </mxCell>
                <mxCell id="139" value="Photo" style="whiteSpace=wrap;html=1;strokeWidth=1;rounded=0;" parent="1" vertex="1">
                    <mxGeometry x="834" y="610.25" width="80" height="49.75" as="geometry"/>
                </mxCell>
                <mxCell id="153" style="edgeStyle=none;html=1;endArrow=none;endFill=0;rounded=0;" parent="1" source="iSEUA83aBgZTAnxHLK8J-162" target="139" edge="1">
                    <mxGeometry relative="1" as="geometry">
                        <mxPoint x="465.99993896484375" y="371.4000244140625" as="targetPoint"/>
                        <mxPoint x="816.0220078648663" y="611.3261935971693" as="sourcePoint"/>
                    </mxGeometry>
                </mxCell>
                <mxCell id="154" value="sid" style="ellipse;whiteSpace=wrap;html=1;rounded=0;fontStyle=4" parent="1" vertex="1">
                    <mxGeometry x="-145" y="15" width="63.5" height="35" as="geometry"/>
                </mxCell>
                <mxCell id="0EuTNRP_Wa4SwzTkIQt1-163" value="" style="rounded=0;orthogonalLoop=1;jettySize=auto;html=1;endArrow=none;endFill=0;" parent="1" edge="1">
                    <mxGeometry relative="1" as="geometry">
                        <mxPoint x="1138.9428339607598" y="56.05002028433523" as="sourcePoint"/>
                    </mxGeometry>
                </mxCell>
                <mxCell id="0EuTNRP_Wa4SwzTkIQt1-174" style="rounded=0;orthogonalLoop=1;jettySize=auto;html=1;endArrow=none;endFill=0;" parent="1" edge="1">
                    <mxGeometry relative="1" as="geometry">
                        <mxPoint x="1154.1688320557892" y="65.73545266300744" as="sourcePoint"/>
                    </mxGeometry>
                </mxCell>
                <mxCell id="0EuTNRP_Wa4SwzTkIQt1-175" style="rounded=0;orthogonalLoop=1;jettySize=auto;html=1;endArrow=none;endFill=0;" parent="1" edge="1">
                    <mxGeometry relative="1" as="geometry">
                        <mxPoint x="1156.3403309146047" y="77.30318185241322" as="sourcePoint"/>
                    </mxGeometry>
                </mxCell>
                <mxCell id="162" style="edgeStyle=none;html=1;strokeWidth=1;startSize=1;endSize=1;endArrow=none;endFill=0;" edge="1" parent="1" source="156" target="163">
                    <mxGeometry relative="1" as="geometry">
                        <mxPoint x="114.50006103515625" y="113.00003051757812" as="targetPoint"/>
                    </mxGeometry>
                </mxCell>
                <mxCell id="167" style="edgeStyle=none;html=1;strokeWidth=1;endArrow=none;endFill=0;startSize=1;endSize=1;" edge="1" parent="1" source="156" target="165">
                    <mxGeometry relative="1" as="geometry"/>
                </mxCell>
                <mxCell id="168" style="edgeStyle=none;html=1;strokeWidth=1;endArrow=none;endFill=0;startSize=1;endSize=1;" edge="1" parent="1" source="156" target="166">
                    <mxGeometry relative="1" as="geometry"/>
                </mxCell>
                <mxCell id="156" value="Ops Hour" style="ellipse;whiteSpace=wrap;html=1;strokeWidth=4;rounded=0;fontStyle=0" parent="1" vertex="1">
                    <mxGeometry x="-41.59999999999991" y="57" width="76" height="41" as="geometry"/>
                </mxCell>
                <mxCell id="1-gIfbeMgeTZ3ZNBH4WI-159" style="rounded=0;orthogonalLoop=1;jettySize=auto;html=1;entryX=0;entryY=0;entryDx=0;entryDy=0;endArrow=none;endFill=0;" parent="1" source="-OKithYqSDyM2QqRVdGg-163" target="-fI06E_qC7kYEdV2wy-7-163" edge="1">
                    <mxGeometry relative="1" as="geometry"/>
                </mxCell>
                <mxCell id="-OKithYqSDyM2QqRVdGg-163" value="Parent Company" style="whiteSpace=wrap;html=1;rounded=0;" parent="1" vertex="1">
                    <mxGeometry x="486.5999999999999" y="-36" width="120" height="60" as="geometry"/>
                </mxCell>
                <mxCell id="-OKithYqSDyM2QqRVdGg-182" style="rounded=0;orthogonalLoop=1;jettySize=auto;html=1;endArrow=none;endFill=0;" parent="1" source="-OKithYqSDyM2QqRVdGg-180" target="19" edge="1">
                    <mxGeometry relative="1" as="geometry"/>
                </mxCell>
                <mxCell id="-OKithYqSDyM2QqRVdGg-180" value="modality" style="ellipse;whiteSpace=wrap;html=1;rounded=0;strokeWidth=1;" parent="1" vertex="1">
                    <mxGeometry x="-77" y="-103" width="65" height="39" as="geometry"/>
                </mxCell>
                <mxCell id="I_FGOVh-PH4kXggIpaVM-165" style="rounded=0;orthogonalLoop=1;jettySize=auto;html=1;endArrow=none;endFill=0;" parent="1" source="I_FGOVh-PH4kXggIpaVM-163" target="5" edge="1">
                    <mxGeometry relative="1" as="geometry">
                        <mxPoint x="436.6" y="131" as="targetPoint"/>
                        <mxPoint x="485.01228383999035" y="170.5356688533443" as="sourcePoint"/>
                    </mxGeometry>
                </mxCell>
                <mxCell id="I_FGOVh-PH4kXggIpaVM-163" value="price" style="ellipse;whiteSpace=wrap;html=1;rounded=0;" parent="1" vertex="1">
                    <mxGeometry x="522" y="124" width="84.6" height="40" as="geometry"/>
                </mxCell>
                <mxCell id="O7Hb4U0rMUPLCB2uZ9Ao-166" style="edgeStyle=none;html=1;endArrow=none;endFill=0;rounded=0;" parent="1" source="17" target="O7Hb4U0rMUPLCB2uZ9Ao-164" edge="1">
                    <mxGeometry relative="1" as="geometry">
                        <mxPoint x="1064" y="294" as="sourcePoint"/>
                        <mxPoint x="1091" y="279" as="targetPoint"/>
                    </mxGeometry>
                </mxCell>
                <mxCell id="O7Hb4U0rMUPLCB2uZ9Ao-164" value="Discount" style="ellipse;whiteSpace=wrap;html=1;rounded=0;" parent="1" vertex="1">
                    <mxGeometry x="184.9999999999999" y="137" width="84.6" height="40" as="geometry"/>
                </mxCell>
                <mxCell id="-fI06E_qC7kYEdV2wy-7-176" style="rounded=0;orthogonalLoop=1;jettySize=auto;html=1;endArrow=none;endFill=0;" parent="1" source="-fI06E_qC7kYEdV2wy-7-163" target="-fI06E_qC7kYEdV2wy-7-164" edge="1">
                    <mxGeometry relative="1" as="geometry"/>
                </mxCell>
                <mxCell id="-fI06E_qC7kYEdV2wy-7-163" value="O" style="ellipse;whiteSpace=wrap;html=1;strokeWidth=1;rounded=0;" parent="1" vertex="1">
                    <mxGeometry x="1384" y="35" width="31" height="30" as="geometry"/>
                </mxCell>
                <mxCell id="-fI06E_qC7kYEdV2wy-7-164" value="Business" style="whiteSpace=wrap;html=1;rounded=0;" parent="1" vertex="1">
                    <mxGeometry x="1339.5" y="-71" width="120" height="60" as="geometry"/>
                </mxCell>
                <mxCell id="-fI06E_qC7kYEdV2wy-7-165" value="BID" style="ellipse;whiteSpace=wrap;html=1;rounded=0;fontStyle=4" parent="1" vertex="1">
                    <mxGeometry x="1384" y="-153" width="69" height="44" as="geometry"/>
                </mxCell>
                <mxCell id="-fI06E_qC7kYEdV2wy-7-170" value="Name" style="ellipse;whiteSpace=wrap;html=1;strokeWidth=1;rounded=0;" parent="1" vertex="1">
                    <mxGeometry x="1281" y="-137" width="76" height="41" as="geometry"/>
                </mxCell>
                <mxCell id="-fI06E_qC7kYEdV2wy-7-174" style="edgeStyle=none;html=1;endArrow=none;endFill=0;rounded=0;" parent="1" source="-fI06E_qC7kYEdV2wy-7-164" target="-fI06E_qC7kYEdV2wy-7-170" edge="1">
                    <mxGeometry relative="1" as="geometry">
                        <mxPoint x="1250" y="405" as="sourcePoint"/>
                        <mxPoint x="1277" y="390" as="targetPoint"/>
                    </mxGeometry>
                </mxCell>
                <mxCell id="-fI06E_qC7kYEdV2wy-7-175" style="edgeStyle=none;html=1;endArrow=none;endFill=0;rounded=0;" parent="1" source="-fI06E_qC7kYEdV2wy-7-164" target="-fI06E_qC7kYEdV2wy-7-165" edge="1">
                    <mxGeometry relative="1" as="geometry">
                        <mxPoint x="1260" y="415" as="sourcePoint"/>
                        <mxPoint x="1287" y="400" as="targetPoint"/>
                    </mxGeometry>
                </mxCell>
                <mxCell id="1-gIfbeMgeTZ3ZNBH4WI-176" value="belongs" style="rhombus;whiteSpace=wrap;html=1;rounded=0;" parent="1" vertex="1">
                    <mxGeometry x="1324" y="726.5" width="80" height="80" as="geometry"/>
                </mxCell>
                <mxCell id="-fI06E_qC7kYEdV2wy-7-196" value="password" style="ellipse;whiteSpace=wrap;html=1;rounded=0;" parent="1" vertex="1">
                    <mxGeometry x="-388" y="416" width="75" height="37" as="geometry"/>
                </mxCell>
                <mxCell id="-fI06E_qC7kYEdV2wy-7-197" style="rounded=0;orthogonalLoop=1;jettySize=auto;html=1;endArrow=none;endFill=0;entryX=0.925;entryY=0;entryDx=0;entryDy=0;entryPerimeter=0;" parent="1" source="-fI06E_qC7kYEdV2wy-7-196" target="9" edge="1">
                    <mxGeometry relative="1" as="geometry">
                        <mxPoint x="-140" y="167" as="sourcePoint"/>
                        <mxPoint x="-163" y="169" as="targetPoint"/>
                    </mxGeometry>
                </mxCell>
                <mxCell id="-fI06E_qC7kYEdV2wy-7-204" value="" style="html=1;startArrow=none;startFill=0;endArrow=none;endFill=0;rounded=0;" parent="1" source="7" target="2" edge="1">
                    <mxGeometry relative="1" as="geometry">
                        <mxPoint x="-260" y="345" as="sourcePoint"/>
                        <mxPoint x="-237" y="244" as="targetPoint"/>
                    </mxGeometry>
                </mxCell>
                <mxCell id="TF3Yx5PsitKT7lrlH3tv-159" value="Min_Price" style="ellipse;whiteSpace=wrap;html=1;rounded=0;strokeWidth=1;dashed=1;dashPattern=12 12;" parent="1" vertex="1">
                    <mxGeometry x="105" y="298.25" width="80" height="34.75" as="geometry"/>
                </mxCell>
                <mxCell id="0EuTNRP_Wa4SwzTkIQt1-171" style="rounded=0;orthogonalLoop=1;jettySize=auto;html=1;entryX=1;entryY=1;entryDx=0;entryDy=0;endArrow=none;endFill=0;" parent="1" edge="1">
                    <mxGeometry relative="1" as="geometry">
                        <mxPoint x="1146.1628930207912" y="87.83597131652868" as="targetPoint"/>
                    </mxGeometry>
                </mxCell>
                <mxCell id="0EuTNRP_Wa4SwzTkIQt1-170" style="rounded=0;orthogonalLoop=1;jettySize=auto;html=1;endArrow=none;endFill=0;" parent="1" edge="1">
                    <mxGeometry relative="1" as="geometry">
                        <mxPoint x="1121.6818208352174" y="93.94888386853268" as="targetPoint"/>
                    </mxGeometry>
                </mxCell>
                <mxCell id="dYaynzTb6qn7LC-2oVFC-164" value="Store Photo" style="whiteSpace=wrap;html=1;strokeWidth=1;rounded=0;" parent="1" vertex="1">
                    <mxGeometry x="1113" y="744" width="102" height="50" as="geometry"/>
                </mxCell>
                <mxCell id="dYaynzTb6qn7LC-2oVFC-177" style="edgeStyle=orthogonalEdgeStyle;rounded=0;orthogonalLoop=1;jettySize=auto;html=1;exitX=1;exitY=0.5;exitDx=0;exitDy=0;endArrow=block;endFill=1;" parent="1" source="dYaynzTb6qn7LC-2oVFC-165" target="dYaynzTb6qn7LC-2oVFC-171" edge="1">
                    <mxGeometry relative="1" as="geometry"/>
                </mxCell>
                <mxCell id="dYaynzTb6qn7LC-2oVFC-165" value="Business Photo" style="whiteSpace=wrap;html=1;strokeWidth=1;rounded=0;" parent="1" vertex="1">
                    <mxGeometry x="1057.6" y="918" width="105.4" height="53" as="geometry"/>
                </mxCell>
                <mxCell id="dYaynzTb6qn7LC-2oVFC-174" style="edgeStyle=orthogonalEdgeStyle;rounded=0;orthogonalLoop=1;jettySize=auto;html=1;strokeWidth=4;" parent="1" source="dYaynzTb6qn7LC-2oVFC-166" target="dYaynzTb6qn7LC-2oVFC-172" edge="1">
                    <mxGeometry relative="1" as="geometry"/>
                </mxCell>
                <mxCell id="dYaynzTb6qn7LC-2oVFC-166" value="Account Photo" style="whiteSpace=wrap;html=1;strokeWidth=1;rounded=0;" parent="1" vertex="1">
                    <mxGeometry x="806.58" y="937.5" width="110" height="53" as="geometry"/>
                </mxCell>
                <mxCell id="dYaynzTb6qn7LC-2oVFC-167" value="" style="edgeStyle=none;html=1;endArrow=none;endFill=0;rounded=0;entryX=1;entryY=0.5;entryDx=0;entryDy=0;" parent="1" source="dYaynzTb6qn7LC-2oVFC-164" target="iSEUA83aBgZTAnxHLK8J-171" edge="1">
                    <mxGeometry relative="1" as="geometry">
                        <mxPoint x="914" y="597" as="sourcePoint"/>
                        <mxPoint x="999.1890053758411" y="841.7470144680256" as="targetPoint"/>
                    </mxGeometry>
                </mxCell>
                <mxCell id="dYaynzTb6qn7LC-2oVFC-168" value="" style="edgeStyle=none;html=1;endArrow=none;endFill=0;rounded=0;" parent="1" source="iSEUA83aBgZTAnxHLK8J-176" target="dYaynzTb6qn7LC-2oVFC-166" edge="1">
                    <mxGeometry relative="1" as="geometry">
                        <mxPoint x="924" y="607" as="sourcePoint"/>
                        <mxPoint x="909" y="630" as="targetPoint"/>
                    </mxGeometry>
                </mxCell>
                <mxCell id="dYaynzTb6qn7LC-2oVFC-169" value="" style="edgeStyle=none;html=1;endArrow=none;endFill=0;rounded=0;" parent="1" source="dYaynzTb6qn7LC-2oVFC-165" target="iSEUA83aBgZTAnxHLK8J-171" edge="1">
                    <mxGeometry relative="1" as="geometry">
                        <mxPoint x="934" y="617" as="sourcePoint"/>
                        <mxPoint x="997.2412782858341" y="857.3245017235208" as="targetPoint"/>
                    </mxGeometry>
                </mxCell>
                <mxCell id="dYaynzTb6qn7LC-2oVFC-178" style="edgeStyle=orthogonalEdgeStyle;rounded=0;orthogonalLoop=1;jettySize=auto;html=1;endArrow=none;endFill=0;startArrow=none;startFill=0;" parent="1" source="dYaynzTb6qn7LC-2oVFC-171" target="-fI06E_qC7kYEdV2wy-7-164" edge="1">
                    <mxGeometry relative="1" as="geometry">
                        <Array as="points">
                            <mxPoint x="1719" y="945"/>
                            <mxPoint x="1719" y="-32"/>
                        </Array>
                        <mxPoint x="1233" y="786.5" as="sourcePoint"/>
                        <mxPoint x="1456" y="-32" as="targetPoint"/>
                    </mxGeometry>
                </mxCell>
                <mxCell id="dYaynzTb6qn7LC-2oVFC-171" value="belongs" style="rhombus;whiteSpace=wrap;html=1;rounded=0;" parent="1" vertex="1">
                    <mxGeometry x="1297" y="904.5" width="80" height="80" as="geometry"/>
                </mxCell>
                <mxCell id="dYaynzTb6qn7LC-2oVFC-172" value="belongs" style="rhombus;whiteSpace=wrap;html=1;rounded=0;" parent="1" vertex="1">
                    <mxGeometry x="633" y="924" width="80" height="80" as="geometry"/>
                </mxCell>
                <mxCell id="dYaynzTb6qn7LC-2oVFC-175" style="edgeStyle=orthogonalEdgeStyle;rounded=0;orthogonalLoop=1;jettySize=auto;html=1;exitX=0;exitY=0.5;exitDx=0;exitDy=0;endArrow=none;endFill=0;startArrow=none;startFill=0;" parent="1" source="dYaynzTb6qn7LC-2oVFC-172" target="9" edge="1">
                    <mxGeometry relative="1" as="geometry"/>
                </mxCell>
                <mxCell id="dYaynzTb6qn7LC-2oVFC-192" style="edgeStyle=none;rounded=0;orthogonalLoop=1;jettySize=auto;html=1;endArrow=none;endFill=0;" parent="1" source="dYaynzTb6qn7LC-2oVFC-183" target="186" edge="1">
                    <mxGeometry relative="1" as="geometry">
                        <mxPoint x="1228.0000000000005" y="-129.92508710801394" as="targetPoint"/>
                    </mxGeometry>
                </mxCell>
                <mxCell id="dYaynzTb6qn7LC-2oVFC-183" value="Street" style="ellipse;whiteSpace=wrap;html=1;strokeWidth=1;rounded=0;fontStyle=4" parent="1" vertex="1">
                    <mxGeometry x="-21" y="-181" width="76" height="41" as="geometry"/>
                </mxCell>
                <mxCell id="dYaynzTb6qn7LC-2oVFC-193" style="edgeStyle=none;rounded=0;orthogonalLoop=1;jettySize=auto;html=1;endArrow=none;endFill=0;" parent="1" source="dYaynzTb6qn7LC-2oVFC-184" target="186" edge="1">
                    <mxGeometry relative="1" as="geometry">
                        <mxPoint x="1228.0000000000005" y="-128.19061583577707" as="targetPoint"/>
                    </mxGeometry>
                </mxCell>
                <mxCell id="dYaynzTb6qn7LC-2oVFC-184" value="City" style="ellipse;whiteSpace=wrap;html=1;strokeWidth=1;rounded=0;" parent="1" vertex="1">
                    <mxGeometry x="74.00000000000011" y="-193" width="76" height="41" as="geometry"/>
                </mxCell>
                <mxCell id="dYaynzTb6qn7LC-2oVFC-194" style="edgeStyle=none;rounded=0;orthogonalLoop=1;jettySize=auto;html=1;endArrow=none;endFill=0;startArrow=none;" parent="1" source="dYaynzTb6qn7LC-2oVFC-186" target="186" edge="1">
                    <mxGeometry relative="1" as="geometry">
                        <mxPoint x="1228.0000000000005" y="-121.62318840579701" as="targetPoint"/>
                    </mxGeometry>
                </mxCell>
                <mxCell id="dYaynzTb6qn7LC-2oVFC-185" value="State" style="ellipse;whiteSpace=wrap;html=1;strokeWidth=1;rounded=0;" parent="1" vertex="1">
                    <mxGeometry x="166.0000000000001" y="-187" width="76" height="41" as="geometry"/>
                </mxCell>
                <mxCell id="dYaynzTb6qn7LC-2oVFC-190" style="edgeStyle=none;rounded=0;orthogonalLoop=1;jettySize=auto;html=1;endArrow=none;endFill=0;" parent="1" source="dYaynzTb6qn7LC-2oVFC-186" target="186" edge="1">
                    <mxGeometry relative="1" as="geometry">
                        <mxPoint x="1228.0000000000005" y="-114.05960264900659" as="targetPoint"/>
                    </mxGeometry>
                </mxCell>
                <mxCell id="dYaynzTb6qn7LC-2oVFC-191" style="edgeStyle=none;rounded=0;orthogonalLoop=1;jettySize=auto;html=1;endArrow=none;endFill=0;" parent="1" source="dYaynzTb6qn7LC-2oVFC-187" target="186" edge="1">
                    <mxGeometry relative="1" as="geometry">
                        <mxPoint x="1213.745856353591" y="-93" as="targetPoint"/>
                    </mxGeometry>
                </mxCell>
                <mxCell id="dYaynzTb6qn7LC-2oVFC-187" value="Country" style="ellipse;whiteSpace=wrap;html=1;strokeWidth=1;rounded=0;" parent="1" vertex="1">
                    <mxGeometry x="113.00000000000009" y="-77" width="76" height="41" as="geometry"/>
                </mxCell>
                <mxCell id="dYaynzTb6qn7LC-2oVFC-216" value="" style="edgeStyle=none;rounded=1;orthogonalLoop=1;jettySize=auto;html=1;endArrow=none;endFill=0;" parent="1" source="81" target="5" edge="1">
                    <mxGeometry relative="1" as="geometry">
                        <mxPoint x="509.4586576137823" y="276.62070536756687" as="sourcePoint"/>
                    </mxGeometry>
                </mxCell>
                <mxCell id="dYaynzTb6qn7LC-2oVFC-215" value="totalRating" style="ellipse;whiteSpace=wrap;html=1;rounded=0;dashed=1;" parent="1" vertex="1">
                    <mxGeometry x="580" y="170" width="84.6" height="40" as="geometry"/>
                </mxCell>
                <mxCell id="dYaynzTb6qn7LC-2oVFC-224" value="username" style="ellipse;whiteSpace=wrap;html=1;rounded=0;" parent="1" vertex="1">
                    <mxGeometry x="-586" y="420" width="75" height="37" as="geometry"/>
                </mxCell>
                <mxCell id="dYaynzTb6qn7LC-2oVFC-233" value="owns" style="rhombus;whiteSpace=wrap;html=1;rounded=0;" parent="1" vertex="1">
                    <mxGeometry x="621" y="561" width="68" height="69" as="geometry"/>
                </mxCell>
                <mxCell id="dYaynzTb6qn7LC-2oVFC-238" style="edgeStyle=none;rounded=1;orthogonalLoop=1;jettySize=auto;html=1;exitX=1;exitY=0;exitDx=0;exitDy=0;endArrow=none;endFill=0;" parent="1" source="dYaynzTb6qn7LC-2oVFC-237" target="139" edge="1">
                    <mxGeometry relative="1" as="geometry"/>
                </mxCell>
                <mxCell id="dYaynzTb6qn7LC-2oVFC-237" value="DateAdded" style="ellipse;whiteSpace=wrap;html=1;strokeWidth=1;rounded=0;" parent="1" vertex="1">
                    <mxGeometry x="918.6" y="561" width="87" height="38" as="geometry"/>
                </mxCell>
                <mxCell id="-Xfdy7UChU0Q8BkvYpxF-159" value="List_of_Stores" style="ellipse;whiteSpace=wrap;html=1;rounded=0;strokeWidth=1;dashed=1;dashPattern=12 12;" parent="1" vertex="1">
                    <mxGeometry x="-13" y="298.25" width="104" height="34.75" as="geometry"/>
                </mxCell>
                <mxCell id="-Xfdy7UChU0Q8BkvYpxF-163" value="" style="shape=requiredInterface;html=1;verticalLabelPosition=bottom;sketch=0;rotation=90;" parent="1" vertex="1">
                    <mxGeometry x="1388" y="150" width="23" height="20" as="geometry"/>
                </mxCell>
                <mxCell id="-Xfdy7UChU0Q8BkvYpxF-164" value="" style="shape=requiredInterface;html=1;verticalLabelPosition=bottom;sketch=0;rotation=120;" parent="1" vertex="1">
                    <mxGeometry x="1343" y="105" width="23" height="20" as="geometry"/>
                </mxCell>
                <mxCell id="-Xfdy7UChU0Q8BkvYpxF-165" value="" style="shape=requiredInterface;html=1;verticalLabelPosition=bottom;sketch=0;rotation=-150;" parent="1" vertex="1">
                    <mxGeometry x="1269" y="-40" width="23" height="20" as="geometry"/>
                </mxCell>
                <mxCell id="-Xfdy7UChU0Q8BkvYpxF-170" value="" style="shape=requiredInterface;html=1;verticalLabelPosition=bottom;sketch=0;rotation=65;" parent="1" vertex="1">
                    <mxGeometry x="820.4" y="878" width="23" height="20" as="geometry"/>
                </mxCell>
                <mxCell id="-Xfdy7UChU0Q8BkvYpxF-171" value="" style="shape=requiredInterface;html=1;verticalLabelPosition=bottom;sketch=0;rotation=30;" parent="1" vertex="1">
                    <mxGeometry x="1044" y="836" width="23" height="20" as="geometry"/>
                </mxCell>
                <mxCell id="-Xfdy7UChU0Q8BkvYpxF-173" value="" style="shape=requiredInterface;html=1;verticalLabelPosition=bottom;sketch=0;rotation=-30;" parent="1" vertex="1">
                    <mxGeometry x="1054.1" y="738" width="23" height="20" as="geometry"/>
                </mxCell>
                <mxCell id="-Xfdy7UChU0Q8BkvYpxF-176" value="title" style="ellipse;whiteSpace=wrap;html=1;rounded=0;" parent="1" vertex="1">
                    <mxGeometry x="365" y="81" width="71.6" height="39" as="geometry"/>
                </mxCell>
                <mxCell id="-Xfdy7UChU0Q8BkvYpxF-180" value="" style="shape=requiredInterface;html=1;verticalLabelPosition=bottom;sketch=0;rotation=-150;" parent="1" vertex="1">
                    <mxGeometry x="-540.5" y="286" width="23" height="20" as="geometry"/>
                </mxCell>
                <mxCell id="-Xfdy7UChU0Q8BkvYpxF-182" value="" style="shape=requiredInterface;html=1;verticalLabelPosition=bottom;sketch=0;rotation=-90;" parent="1" vertex="1">
                    <mxGeometry x="-460" y="280" width="23" height="20" as="geometry"/>
                </mxCell>
                <mxCell id="-Xfdy7UChU0Q8BkvYpxF-183" value="" style="shape=requiredInterface;html=1;verticalLabelPosition=bottom;sketch=0;rotation=-30;" parent="1" vertex="1">
                    <mxGeometry x="-369" y="280" width="23" height="20" as="geometry"/>
                </mxCell>
                <mxCell id="iSEUA83aBgZTAnxHLK8J-159" value="MedPhoto" style="whiteSpace=wrap;html=1;strokeWidth=1;rounded=0;" parent="1" vertex="1">
                    <mxGeometry x="758" y="760.88" width="80" height="49.75" as="geometry"/>
                </mxCell>
                <mxCell id="iSEUA83aBgZTAnxHLK8J-161" style="edgeStyle=none;html=1;endArrow=none;endFill=0;rounded=0;" parent="1" edge="1">
                    <mxGeometry relative="1" as="geometry">
                        <mxPoint x="514.98" y="1050.65" as="targetPoint"/>
                        <mxPoint x="497.0020078648663" y="1042.9761935971692" as="sourcePoint"/>
                    </mxGeometry>
                </mxCell>
                <mxCell id="iSEUA83aBgZTAnxHLK8J-162" value="PID" style="ellipse;whiteSpace=wrap;html=1;rounded=0;fontStyle=4" parent="1" vertex="1">
                    <mxGeometry x="721.98" y="645.65" width="84.6" height="40" as="geometry"/>
                </mxCell>
                <mxCell id="iSEUA83aBgZTAnxHLK8J-167" style="rounded=0;orthogonalLoop=1;jettySize=auto;html=1;endArrow=none;endFill=0;" parent="1" source="iSEUA83aBgZTAnxHLK8J-165" target="iSEUA83aBgZTAnxHLK8J-159" edge="1">
                    <mxGeometry relative="1" as="geometry"/>
                </mxCell>
                <mxCell id="iSEUA83aBgZTAnxHLK8J-165" value="img" style="ellipse;whiteSpace=wrap;html=1;strokeWidth=1;rounded=0;" parent="1" vertex="1">
                    <mxGeometry x="652" y="761" width="87" height="38" as="geometry"/>
                </mxCell>
                <mxCell id="iSEUA83aBgZTAnxHLK8J-166" value="img" style="ellipse;whiteSpace=wrap;html=1;strokeWidth=1;rounded=0;" parent="1" vertex="1">
                    <mxGeometry x="1026" y="622" width="87" height="38" as="geometry"/>
                </mxCell>
                <mxCell id="iSEUA83aBgZTAnxHLK8J-168" style="rounded=0;orthogonalLoop=1;jettySize=auto;html=1;endArrow=none;endFill=0;" parent="1" source="iSEUA83aBgZTAnxHLK8J-166" edge="1">
                    <mxGeometry relative="1" as="geometry">
                        <mxPoint x="751" y="813" as="sourcePoint"/>
                        <mxPoint x="1032.8360623781678" y="680.25" as="targetPoint"/>
                    </mxGeometry>
                </mxCell>
                <mxCell id="iSEUA83aBgZTAnxHLK8J-171" value="d" style="ellipse;whiteSpace=wrap;html=1;strokeWidth=1;rounded=0;" parent="1" vertex="1">
                    <mxGeometry x="858.5" y="685.65" width="31" height="30" as="geometry"/>
                </mxCell>
                <mxCell id="iSEUA83aBgZTAnxHLK8J-175" style="rounded=0;orthogonalLoop=1;jettySize=auto;html=1;endArrow=none;endFill=0;shape=link;" parent="1" source="iSEUA83aBgZTAnxHLK8J-176" target="iSEUA83aBgZTAnxHLK8J-159" edge="1">
                    <mxGeometry relative="1" as="geometry">
                        <mxPoint x="870" y="864" as="sourcePoint"/>
                        <mxPoint x="783" y="823" as="targetPoint"/>
                    </mxGeometry>
                </mxCell>
                <mxCell id="iSEUA83aBgZTAnxHLK8J-176" value="d" style="ellipse;whiteSpace=wrap;html=1;strokeWidth=1;rounded=0;" parent="1" vertex="1">
                    <mxGeometry x="803" y="833" width="31" height="30" as="geometry"/>
                </mxCell>
                <mxCell id="iSEUA83aBgZTAnxHLK8J-182" value="" style="edgeStyle=none;html=1;endArrow=none;endFill=0;rounded=0;" parent="1" source="iSEUA83aBgZTAnxHLK8J-159" target="iSEUA83aBgZTAnxHLK8J-171" edge="1">
                    <mxGeometry relative="1" as="geometry">
                        <mxPoint x="980" y="714" as="sourcePoint"/>
                        <mxPoint x="899" y="711" as="targetPoint"/>
                    </mxGeometry>
                </mxCell>
                <mxCell id="iSEUA83aBgZTAnxHLK8J-184" value="" style="shape=requiredInterface;html=1;verticalLabelPosition=bottom;sketch=0;rotation=128;" parent="1" vertex="1">
                    <mxGeometry x="835" y="722" width="23" height="20" as="geometry"/>
                </mxCell>
                <mxCell id="ozYNlReQA_SRUDaW6FIN-160" value="" style="edgeStyle=none;html=1;startArrow=none;startFill=0;endArrow=none;endFill=0;shape=link;rounded=0;" parent="1" source="ozYNlReQA_SRUDaW6FIN-178" target="ozYNlReQA_SRUDaW6FIN-168" edge="1">
                    <mxGeometry relative="1" as="geometry">
                        <mxPoint x="-468" y="1393" as="sourcePoint"/>
                    </mxGeometry>
                </mxCell>
                <mxCell id="ozYNlReQA_SRUDaW6FIN-161" value="" style="edgeStyle=none;html=1;endArrow=none;endFill=0;rounded=0;" parent="1" source="ozYNlReQA_SRUDaW6FIN-168" target="ozYNlReQA_SRUDaW6FIN-169" edge="1">
                    <mxGeometry relative="1" as="geometry"/>
                </mxCell>
                <mxCell id="ozYNlReQA_SRUDaW6FIN-162" value="" style="edgeStyle=none;html=1;endArrow=none;endFill=0;rounded=0;" parent="1" source="ozYNlReQA_SRUDaW6FIN-168" target="ozYNlReQA_SRUDaW6FIN-170" edge="1">
                    <mxGeometry relative="1" as="geometry"/>
                </mxCell>
                <mxCell id="ozYNlReQA_SRUDaW6FIN-163" value="" style="edgeStyle=none;html=1;endArrow=none;endFill=0;rounded=0;" parent="1" source="ozYNlReQA_SRUDaW6FIN-168" target="ozYNlReQA_SRUDaW6FIN-170" edge="1">
                    <mxGeometry relative="1" as="geometry"/>
                </mxCell>
                <mxCell id="ozYNlReQA_SRUDaW6FIN-164" value="" style="edgeStyle=none;html=1;endArrow=none;endFill=0;rounded=0;" parent="1" source="ozYNlReQA_SRUDaW6FIN-168" target="ozYNlReQA_SRUDaW6FIN-171" edge="1">
                    <mxGeometry relative="1" as="geometry"/>
                </mxCell>
                <mxCell id="ozYNlReQA_SRUDaW6FIN-165" value="" style="edgeStyle=none;html=1;endArrow=none;endFill=0;rounded=0;" parent="1" source="ozYNlReQA_SRUDaW6FIN-168" target="ozYNlReQA_SRUDaW6FIN-172" edge="1">
                    <mxGeometry relative="1" as="geometry"/>
                </mxCell>
                <mxCell id="ozYNlReQA_SRUDaW6FIN-166" value="" style="edgeStyle=none;html=1;endArrow=none;endFill=0;rounded=0;" parent="1" source="ozYNlReQA_SRUDaW6FIN-168" target="ozYNlReQA_SRUDaW6FIN-173" edge="1">
                    <mxGeometry relative="1" as="geometry"/>
                </mxCell>
                <mxCell id="ozYNlReQA_SRUDaW6FIN-167" style="edgeStyle=none;rounded=1;orthogonalLoop=1;jettySize=auto;html=1;endArrow=none;endFill=0;" parent="1" source="ozYNlReQA_SRUDaW6FIN-168" target="ozYNlReQA_SRUDaW6FIN-175" edge="1">
                    <mxGeometry relative="1" as="geometry"/>
                </mxCell>
                <mxCell id="ozYNlReQA_SRUDaW6FIN-168" value="User" style="whiteSpace=wrap;html=1;rounded=0;" parent="1" vertex="1">
                    <mxGeometry x="-528" y="1253" width="120" height="60" as="geometry"/>
                </mxCell>
                <mxCell id="ozYNlReQA_SRUDaW6FIN-169" value="&lt;u&gt;UID&lt;/u&gt;" style="ellipse;whiteSpace=wrap;html=1;rounded=0;" parent="1" vertex="1">
                    <mxGeometry x="-645" y="1343" width="73" height="37" as="geometry"/>
                </mxCell>
                <mxCell id="ozYNlReQA_SRUDaW6FIN-170" value="Firstname" style="ellipse;whiteSpace=wrap;html=1;rounded=0;" parent="1" vertex="1">
                    <mxGeometry x="-711" y="1245" width="75" height="37" as="geometry"/>
                </mxCell>
                <mxCell id="ozYNlReQA_SRUDaW6FIN-171" value="DOB" style="ellipse;whiteSpace=wrap;html=1;rounded=0;" parent="1" vertex="1">
                    <mxGeometry x="-668" y="1178" width="68" height="40.5" as="geometry"/>
                </mxCell>
                <mxCell id="ozYNlReQA_SRUDaW6FIN-172" value="Email" style="ellipse;whiteSpace=wrap;html=1;rounded=0;strokeWidth=1;" parent="1" vertex="1">
                    <mxGeometry x="-588" y="1138" width="69" height="38" as="geometry"/>
                </mxCell>
                <mxCell id="ozYNlReQA_SRUDaW6FIN-173" value="Phone" style="ellipse;whiteSpace=wrap;html=1;rounded=0;" parent="1" vertex="1">
                    <mxGeometry x="-487" y="1139" width="78" height="39" as="geometry"/>
                </mxCell>
                <mxCell id="ozYNlReQA_SRUDaW6FIN-174" style="rounded=0;orthogonalLoop=1;jettySize=auto;html=1;endArrow=none;endFill=0;entryX=0.925;entryY=0;entryDx=0;entryDy=0;entryPerimeter=0;exitX=0;exitY=1;exitDx=0;exitDy=0;" parent="1" source="ozYNlReQA_SRUDaW6FIN-176" target="ozYNlReQA_SRUDaW6FIN-168" edge="1">
                    <mxGeometry relative="1" as="geometry">
                        <mxPoint x="-378" y="1209" as="sourcePoint"/>
                        <mxPoint x="-183" y="938" as="targetPoint"/>
                    </mxGeometry>
                </mxCell>
                <mxCell id="ozYNlReQA_SRUDaW6FIN-175" value="Username" style="ellipse;whiteSpace=wrap;html=1;rounded=0;" parent="1" vertex="1">
                    <mxGeometry x="-711" y="1303.25" width="75" height="37" as="geometry"/>
                </mxCell>
                <mxCell id="ozYNlReQA_SRUDaW6FIN-176" value="Last Login" style="ellipse;whiteSpace=wrap;html=1;strokeWidth=1;rounded=0;" parent="1" vertex="1">
                    <mxGeometry x="-377" y="1146" width="76" height="45" as="geometry"/>
                </mxCell>
                <mxCell id="ozYNlReQA_SRUDaW6FIN-180" style="rounded=0;orthogonalLoop=1;jettySize=auto;html=1;endArrow=none;endFill=0;" parent="1" source="ozYNlReQA_SRUDaW6FIN-178" target="ozYNlReQA_SRUDaW6FIN-181" edge="1">
                    <mxGeometry relative="1" as="geometry">
                        <mxPoint x="-522" y="1481" as="targetPoint"/>
                    </mxGeometry>
                </mxCell>
                <mxCell id="ozYNlReQA_SRUDaW6FIN-182" style="rounded=0;orthogonalLoop=1;jettySize=auto;html=1;exitX=0.5;exitY=1;exitDx=0;exitDy=0;endArrow=none;endFill=0;" parent="1" source="ozYNlReQA_SRUDaW6FIN-178" target="ozYNlReQA_SRUDaW6FIN-183" edge="1">
                    <mxGeometry relative="1" as="geometry">
                        <mxPoint x="-461" y="1451" as="targetPoint"/>
                    </mxGeometry>
                </mxCell>
                <mxCell id="ozYNlReQA_SRUDaW6FIN-185" style="rounded=0;orthogonalLoop=1;jettySize=auto;html=1;exitX=1;exitY=0.5;exitDx=0;exitDy=0;endArrow=none;endFill=0;" parent="1" source="ozYNlReQA_SRUDaW6FIN-178" target="ozYNlReQA_SRUDaW6FIN-184" edge="1">
                    <mxGeometry relative="1" as="geometry"/>
                </mxCell>
                <mxCell id="ozYNlReQA_SRUDaW6FIN-178" value="d" style="ellipse;whiteSpace=wrap;html=1;rounded=0;" parent="1" vertex="1">
                    <mxGeometry x="-483" y="1367" width="30" height="30" as="geometry"/>
                </mxCell>
                <mxCell id="ozYNlReQA_SRUDaW6FIN-181" value="Customer" style="rounded=0;whiteSpace=wrap;html=1;" parent="1" vertex="1">
                    <mxGeometry x="-698" y="1466" width="120" height="60" as="geometry"/>
                </mxCell>
                <mxCell id="ozYNlReQA_SRUDaW6FIN-183" value="&lt;div&gt;Manager&lt;/div&gt;" style="rounded=0;whiteSpace=wrap;html=1;" parent="1" vertex="1">
                    <mxGeometry x="-529" y="1466" width="120" height="60" as="geometry"/>
                </mxCell>
                <mxCell id="ozYNlReQA_SRUDaW6FIN-184" value="Admin" style="rounded=0;whiteSpace=wrap;html=1;" parent="1" vertex="1">
                    <mxGeometry x="-359" y="1470" width="120" height="60" as="geometry"/>
                </mxCell>
                <mxCell id="160" value="&lt;u&gt;gid&lt;/u&gt;" style="ellipse;whiteSpace=wrap;html=1;rounded=0;" vertex="1" parent="1">
                    <mxGeometry x="272" y="90.5" width="84.6" height="40" as="geometry"/>
                </mxCell>
                <mxCell id="163" value="day" style="ellipse;whiteSpace=wrap;html=1;rounded=0;" vertex="1" parent="1">
                    <mxGeometry x="-132" y="130" width="68.6" height="34" as="geometry"/>
                </mxCell>
                <mxCell id="165" value="start_time" style="ellipse;whiteSpace=wrap;html=1;rounded=0;" vertex="1" parent="1">
                    <mxGeometry x="-45.89999999999995" y="130" width="84.6" height="40" as="geometry"/>
                </mxCell>
                <mxCell id="166" value="end_time" style="ellipse;whiteSpace=wrap;html=1;rounded=0;" vertex="1" parent="1">
                    <mxGeometry x="55" y="126" width="84.6" height="40" as="geometry"/>
                </mxCell>
                <mxCell id="171" value="firstname" style="ellipse;whiteSpace=wrap;html=1;rounded=0;" vertex="1" parent="1">
                    <mxGeometry x="-437" y="610.25" width="75" height="37" as="geometry"/>
                </mxCell>
                <mxCell id="172" value="lastname" style="ellipse;whiteSpace=wrap;html=1;rounded=0;" vertex="1" parent="1">
                    <mxGeometry x="-336.5" y="585" width="75" height="37" as="geometry"/>
                </mxCell>
                <mxCell id="175" value="salary" style="ellipse;whiteSpace=wrap;html=1;strokeWidth=1;rounded=0;" vertex="1" parent="1">
                    <mxGeometry x="-418" y="130.5" width="76" height="45" as="geometry"/>
                </mxCell>
                <mxCell id="176" value="can_ban_admin" style="ellipse;whiteSpace=wrap;html=1;strokeWidth=1;rounded=0;" vertex="1" parent="1">
                    <mxGeometry x="-646" y="127" width="113" height="45" as="geometry"/>
                </mxCell>
                <mxCell id="182" value="description" style="ellipse;whiteSpace=wrap;html=1;rounded=0;" vertex="1" parent="1">
                    <mxGeometry x="439" y="111" width="78" height="39" as="geometry"/>
                </mxCell>
                <mxCell id="184" value="publish_date" style="ellipse;whiteSpace=wrap;html=1;rounded=0;" vertex="1" parent="1">
                    <mxGeometry x="530" y="254" width="87" height="41" as="geometry"/>
                </mxCell>
                <mxCell id="188" style="edgeStyle=none;html=1;strokeWidth=1;endArrow=none;endFill=0;startSize=1;endSize=1;" edge="1" parent="1" source="186" target="dYaynzTb6qn7LC-2oVFC-185">
                    <mxGeometry relative="1" as="geometry"/>
                </mxCell>
                <mxCell id="186" value="address" style="ellipse;whiteSpace=wrap;html=1;strokeWidth=1;rounded=0;" vertex="1" parent="1">
                    <mxGeometry x="4.000000000000114" y="-122" width="76" height="41" as="geometry"/>
                </mxCell>
                <mxCell id="dYaynzTb6qn7LC-2oVFC-186" value="Zip_Code" style="ellipse;whiteSpace=wrap;html=1;strokeWidth=1;rounded=0;" parent="1" vertex="1">
                    <mxGeometry x="152.3000000000001" y="-132" width="76" height="41" as="geometry"/>
                </mxCell>
                <mxCell id="193" value="store_name" style="ellipse;whiteSpace=wrap;html=1;rounded=0;strokeWidth=1;" vertex="1" parent="1">
                    <mxGeometry x="-164" y="-67" width="84" height="39" as="geometry"/>
                </mxCell>
            </root>
        </mxGraphModel>
    </diagram>
</mxfile>